<svg width="40.000000" height="40.000000" viewBox="0 0 40 40" fill="none" xmlns="http://www.w3.org/2000/svg" xmlns:xlink="http://www.w3.org/1999/xlink">
	<desc>
			Created with Pixso.
	</desc>
	<defs/>
	<g opacity="0.000000">
		<path id="Vector" d="M40 40L0 40L0 0L40 0L40 40Z" fill="#24AB70" fill-opacity="1.000000" fill-rule="evenodd"/>
	</g>
	<path id="Vector" d="M17.43 30C16.9 29.99 16.39 29.88 15.91 29.66C15.4 29.43 14.96 29.06 14.65 28.59C14.34 28.12 14.17 27.57 14.16 27.01L14.16 12.98C14.17 12.42 14.34 11.87 14.65 11.4C14.96 10.93 15.4 10.56 15.91 10.33C16.5 10.05 17.16 9.94 17.82 10.02C18.47 10.09 19.08 10.35 19.59 10.76L28.09 17.78C28.43 18.04 28.7 18.38 28.88 18.76C29.07 19.15 29.16 19.57 29.16 20C29.16 20.42 29.07 20.84 28.88 21.23C28.7 21.61 28.43 21.95 28.09 22.21L19.59 29.23C18.98 29.73 18.22 30 17.43 30Z" fill="#24AB70" fill-opacity="1.000000" fill-rule="nonzero"/>
</svg>
