<svg width="40.000000" height="40.000000" viewBox="0 0 40 40" fill="none" xmlns="http://www.w3.org/2000/svg" xmlns:xlink="http://www.w3.org/1999/xlink">
	<desc>
			Created with Pixso.
	</desc>
	<defs>
		<clipPath id="clip4029_169">
			<rect id="cappuccino 1" rx="0.000000" width="39.000000" height="39.000000" transform="translate(0.500000 0.500000)" fill="white" fill-opacity="0"/>
		</clipPath>
	</defs>
	<rect id="cappuccino 1" rx="0.000000" width="39.000000" height="39.000000" transform="translate(0.500000 0.500000)" fill="#FFFFFF" fill-opacity="0"/>
	<g clip-path="url(#clip4029_169)">
		<path id="Vector" d="M10.54 7.1L29.45 7.1C30.09 7.1 30.62 7.63 30.62 8.28C30.62 8.92 30.09 9.45 29.45 9.45L22.34 9.45C20.4 9.45 18.82 11.03 18.82 12.96L18.82 14.14L21.17 14.14L21.17 12.96C21.17 12.32 21.69 11.79 22.34 11.79L29.45 11.79C31.39 11.79 32.96 10.21 32.96 8.28C32.96 6.34 31.39 4.76 29.45 4.76L10.54 4.76C9.9 4.76 9.37 4.23 9.37 3.59L9.37 2.42L7.03 2.42L7.03 3.59C7.03 5.53 8.6 7.1 10.54 7.1Z" fill="#24AB70" fill-opacity="1.000000" fill-rule="nonzero"/>
		<path id="Vector" d="M31.61 28.2L35.31 28.2C37.89 28.2 40 26.1 40 23.51C40 20.93 37.89 18.82 35.31 18.82L32.96 18.82L32.96 16.48L7.03 16.48L7.03 22.42C7.03 25.42 8.04 28.26 9.88 30.54L0 30.54L0 32.89L5.13 32.89L7.47 37.57L32.52 37.57L34.86 32.89L40 32.89L40 30.54L30.11 30.54C30.7 29.81 31.2 29.03 31.61 28.2ZM35.31 21.17C36.6 21.17 37.65 22.22 37.65 23.51C37.65 24.8 36.6 25.85 35.31 25.85L32.5 25.85C32.81 24.75 32.96 23.6 32.96 22.42L32.96 21.17L35.31 21.17ZM9.37 22.42L9.37 18.82L30.62 18.82L30.62 22.42C30.62 25.58 29.25 28.52 26.84 30.54L13.15 30.54C10.74 28.52 9.37 25.58 9.37 22.42ZM31.07 35.23L8.92 35.23L7.75 32.89L32.24 32.89L31.07 35.23Z" fill="#24AB70" fill-opacity="1.000000" fill-rule="nonzero"/>
	</g>
</svg>
