<svg width="40.000000" height="40.000000" viewBox="0 0 40 40" fill="none" xmlns="http://www.w3.org/2000/svg" xmlns:xlink="http://www.w3.org/1999/xlink">
	<desc>
			Created with Pixso.
	</desc>
	<defs>
		<clipPath id="clip4029_162">
			<rect id="dumbell 1" rx="0.000000" width="39.000000" height="39.000000" transform="translate(0.500000 0.500000)" fill="white" fill-opacity="0"/>
		</clipPath>
	</defs>
	<rect id="dumbell 1" rx="0.000000" width="39.000000" height="39.000000" transform="translate(0.500000 0.500000)" fill="#FFFFFF" fill-opacity="0"/>
	<g clip-path="url(#clip4029_162)">
		<path id="Vector" d="M37.39 12.17L35.65 12.17C35.34 12.17 35.05 12.23 34.78 12.33L34.78 9.56C34.78 8.12 33.61 6.95 32.17 6.95L30.43 6.95C28.99 6.95 27.82 8.12 27.82 9.56L27.82 15.65L12.17 15.65L12.17 9.56C12.17 8.12 11 6.95 9.56 6.95L7.82 6.95C6.38 6.95 5.21 8.12 5.21 9.56L5.21 12.33C4.94 12.23 4.65 12.17 4.34 12.17L2.6 12.17C1.17 12.17 0 13.34 0 14.78L0 25.21C0 26.65 1.17 27.82 2.6 27.82L4.34 27.82C4.65 27.82 4.94 27.76 5.21 27.66L5.21 30.43C5.21 31.87 6.38 33.04 7.82 33.04L9.56 33.04C11 33.04 12.17 31.87 12.17 30.43L12.17 24.34L27.82 24.34L27.82 30.43C27.82 31.87 28.99 33.04 30.43 33.04L32.17 33.04C33.61 33.04 34.78 31.87 34.78 30.43L34.78 27.66C35.05 27.76 35.34 27.82 35.65 27.82L37.39 27.82C38.82 27.82 40 26.65 40 25.21L40 14.78C40 13.34 38.82 12.17 37.39 12.17ZM5.21 25.21C5.21 25.69 4.82 26.08 4.34 26.08L2.6 26.08C2.12 26.08 1.73 25.69 1.73 25.21L1.73 14.78C1.73 14.3 2.12 13.91 2.6 13.91L4.34 13.91C4.82 13.91 5.21 14.3 5.21 14.78L5.21 25.21ZM10.43 30.43C10.43 30.91 10.04 31.3 9.56 31.3L7.82 31.3C7.34 31.3 6.95 30.91 6.95 30.43L6.95 25.21L6.95 14.78L6.95 9.56C6.95 9.08 7.34 8.69 7.82 8.69L9.56 8.69C10.04 8.69 10.43 9.08 10.43 9.56L10.43 30.43ZM27.82 22.6L12.17 22.6L12.17 17.39L27.82 17.39L27.82 22.6ZM33.04 14.78L33.04 25.21L33.04 30.43C33.04 30.91 32.65 31.3 32.17 31.3L30.43 31.3C29.95 31.3 29.56 30.91 29.56 30.43L29.56 9.56C29.56 9.08 29.95 8.69 30.43 8.69L32.17 8.69C32.65 8.69 33.04 9.08 33.04 9.56L33.04 14.78ZM38.26 25.21C38.26 25.69 37.87 26.08 37.39 26.08L35.65 26.08C35.17 26.08 34.78 25.69 34.78 25.21L34.78 14.78C34.78 14.3 35.17 13.91 35.65 13.91L37.39 13.91C37.87 13.91 38.26 14.3 38.26 14.78L38.26 25.21Z" fill="#24AB70" fill-opacity="1.000000" fill-rule="nonzero"/>
	</g>
</svg>
