<svg width="40.000000" height="40.000000" viewBox="0 0 40 40" fill="none" xmlns="http://www.w3.org/2000/svg" xmlns:xlink="http://www.w3.org/1999/xlink">
	<desc>
			Created with Pixso.
	</desc>
	<defs>
		<clipPath id="clip4029_199">
			<rect id="flash (1) 1" rx="0.000000" width="39.000000" height="39.000000" transform="translate(0.500000 0.500000)" fill="white" fill-opacity="0"/>
		</clipPath>
	</defs>
	<rect id="flash (1) 1" rx="0.000000" width="39.000000" height="39.000000" transform="translate(0.500000 0.500000)" fill="#FFFFFF" fill-opacity="0"/>
	<g clip-path="url(#clip4029_199)">
		<path id="Vector" d="M11.27 39.87C11.77 40.12 12.36 39.99 12.71 39.55L31.46 16.04C31.74 15.69 31.79 15.2 31.6 14.8C31.4 14.39 30.99 14.14 30.54 14.14L23.06 14.14L29.25 1.69C29.43 1.33 29.41 0.89 29.19 0.55C28.98 0.2 28.6 0 28.2 0L14.14 0C13.6 0 13.13 0.36 13 0.88L8.31 19.71C8.22 20.06 8.3 20.43 8.52 20.72C8.75 21 9.09 21.17 9.45 21.17L14.98 21.17L10.65 38.54C10.52 39.07 10.78 39.63 11.27 39.87ZM17.62 20.28C17.7 19.93 17.62 19.56 17.4 19.27C17.18 18.99 16.84 18.82 16.48 18.82L10.95 18.82L15.05 2.34L26.31 2.34L20.12 14.79C19.94 15.15 19.96 15.58 20.17 15.92C20.38 16.27 20.76 16.48 21.17 16.48L28.11 16.48L14.23 33.89L17.62 20.28Z" fill="#24AB70" fill-opacity="1.000000" fill-rule="nonzero"/>
	</g>
</svg>
