<svg width="40.000000" height="40.000000" viewBox="0 0 40 40" fill="none" xmlns="http://www.w3.org/2000/svg" xmlns:xlink="http://www.w3.org/1999/xlink">
	<desc>
			Created with Pixso.
	</desc>
	<defs>
		<clipPath id="clip4029_176">
			<rect id="parking-area (1) 1" rx="0.000000" width="39.000000" height="39.000000" transform="translate(0.500000 0.500000)" fill="white" fill-opacity="0"/>
		</clipPath>
	</defs>
	<rect id="parking-area (1) 1" rx="0.000000" width="39.000000" height="39.000000" transform="translate(0.500000 0.500000)" fill="#FFFFFF" fill-opacity="0"/>
	<g clip-path="url(#clip4029_176)">
		<path id="Vector" d="M21.12 7.67L16.48 7.67C15.82 7.67 15.3 8.2 15.3 8.84L15.3 25.53C15.3 26.17 15.83 26.7 16.48 26.7C17.12 26.7 17.65 26.17 17.65 25.53L17.65 19.44C18.73 19.44 20.33 19.43 21.12 19.43C22.69 19.43 24.18 18.82 25.32 17.72C26.46 16.6 27.1 15.12 27.1 13.55C27.1 11.98 26.46 10.5 25.32 9.38C24.18 8.27 22.69 7.67 21.12 7.67ZM21.12 17.09C20.33 17.09 18.76 17.09 17.67 17.1C17.65 13.45 17.66 14.68 17.65 10.01L21.12 10.01C23.09 10.01 24.75 11.63 24.75 13.55C24.75 15.47 23.09 17.09 21.12 17.09Z" fill="#24AB70" fill-opacity="1.000000" fill-rule="nonzero"/>
		<path id="Vector" d="M32.15 5.03C28.9 1.78 24.59 0 19.99 0C15.4 0 11.09 1.78 7.84 5.03C-1.6 14.47 2.89 30.73 15.93 33.89L15.93 38.04C15.93 39.12 16.81 40 17.89 40L22.1 40C23.18 40 24.06 39.12 24.06 38.04L24.06 33.89C37.12 30.73 41.58 14.46 32.15 5.03ZM21.71 37.65L18.28 37.65L18.28 34.28C19.42 34.4 20.57 34.4 21.71 34.28L21.71 37.65ZM22.68 31.79C13.64 33.43 5.15 26.54 5.15 17.18C5.15 9 11.81 2.34 19.99 2.34C28.18 2.34 34.84 9 34.84 17.18C34.84 24.35 29.74 30.5 22.68 31.79Z" fill="#24AB70" fill-opacity="1.000000" fill-rule="nonzero"/>
	</g>
</svg>
