<svg width="16.000000" height="16.000000" viewBox="0 0 16 16" fill="none" xmlns="http://www.w3.org/2000/svg" xmlns:xlink="http://www.w3.org/1999/xlink">
	<desc>
			Created with Pixso.
	</desc>
	<defs>
		<clipPath id="clip4029_38">
			<rect id="star 5" rx="0.000000" width="15.000000" height="15.000000" transform="translate(0.500000 0.500000)" fill="white" fill-opacity="0"/>
		</clipPath>
	</defs>
	<rect id="star 5" rx="0.000000" width="15.000000" height="15.000000" transform="translate(0.500000 0.500000)" fill="#FFFFFF" fill-opacity="0"/>
	<g clip-path="url(#clip4029_38)">
		<g opacity="0.000000">
			<path id="Vector" d="M16 0L16 16L0 16L0 0L16 0Z" fill="#E5E5E5" fill-opacity="1.000000" fill-rule="evenodd"/>
		</g>
		<path id="Vector" d="M11.7 14C11.6 14 11.49 13.97 11.39 13.92L8 12.14L4.59 13.92C4.48 13.98 4.36 14.01 4.24 14C4.11 13.99 3.99 13.94 3.89 13.87C3.79 13.8 3.71 13.7 3.67 13.58C3.62 13.46 3.61 13.34 3.63 13.22L4.29 9.46L1.55 6.79C1.46 6.71 1.4 6.6 1.37 6.48C1.34 6.37 1.35 6.24 1.38 6.13C1.42 6.01 1.49 5.9 1.59 5.82C1.68 5.74 1.8 5.69 1.92 5.67L5.72 5.12L7.39 1.7C7.45 1.59 7.53 1.49 7.64 1.43C7.75 1.36 7.87 1.33 8 1.33C8.12 1.33 8.24 1.36 8.35 1.43C8.45 1.49 8.54 1.59 8.59 1.7L10.29 5.12L14.09 5.67C14.21 5.69 14.33 5.74 14.42 5.82C14.52 5.9 14.59 6 14.63 6.12C14.66 6.24 14.67 6.36 14.64 6.48C14.61 6.6 14.55 6.7 14.46 6.79L11.71 9.45L12.38 13.21C12.41 13.33 12.39 13.46 12.35 13.58C12.3 13.7 12.22 13.8 12.11 13.87C11.99 13.96 11.85 14 11.7 14Z" fill="#E5E5E5" fill-opacity="1.000000" fill-rule="nonzero"/>
	</g>
</svg>
