<svg width="26.399902" height="22.879883" viewBox="0 0 26.3999 22.8799" fill="none" xmlns="http://www.w3.org/2000/svg" xmlns:xlink="http://www.w3.org/1999/xlink">
	<desc>
			Created with Pixso.
	</desc>
	<defs/>
	<path id="“" d="M10.71 13.91C10.71 11.67 10.34 9.6 9.6 7.67C8.85 5.76 7.97 4.29 6.95 3.28C5.94 2.21 5.01 1.41 4.15 0.87C3.25 0.29 2.56 0 2.08 0C1.81 0 1.57 0.13 1.35 0.39C1.14 0.61 1.04 0.8 1.04 0.95C1.04 1.28 1.27 1.65 1.75 2.08C2.23 2.45 2.74 2.85 3.27 3.28C3.81 3.7 4.31 4.42 4.79 5.43C5.27 6.45 5.52 7.65 5.52 9.04C5.52 10.48 5.22 11.7 4.64 12.72C4.05 13.67 3.43 14.34 2.79 14.72C2.1 15.09 1.46 15.54 0.87 16.08C0.29 16.56 0 17.12 0 17.76C0 18.08 0.71 18.95 2.15 20.39C2.26 20.5 2.56 20.85 3.04 21.43C3.46 21.97 3.86 22.34 4.23 22.56C4.56 22.77 4.93 22.87 5.35 22.87C5.52 22.87 5.78 22.8 6.15 22.63C6.53 22.42 6.98 22.08 7.52 21.6C8.05 21.12 8.56 20.56 9.04 19.91C9.52 19.28 9.91 18.42 10.23 17.36C10.56 16.29 10.71 15.14 10.71 13.91ZM26.39 13.91C26.39 11.67 26.02 9.6 25.27 7.67C24.53 5.76 23.65 4.29 22.64 3.28C21.57 2.21 20.61 1.41 19.75 0.87C18.85 0.29 18.15 0 17.67 0C17.41 0 17.17 0.13 16.95 0.39C16.74 0.61 16.64 0.8 16.64 0.95C16.64 1.28 16.87 1.65 17.35 2.08C17.78 2.45 18.29 2.85 18.87 3.28C19.46 3.7 20 4.42 20.48 5.43C20.9 6.45 21.12 7.65 21.12 9.04C21.12 10.48 20.82 11.7 20.23 12.72C19.65 13.67 19.04 14.34 18.39 14.72C17.7 15.09 17.06 15.54 16.48 16.08C15.89 16.56 15.6 17.12 15.6 17.76C15.6 18.08 16.31 18.95 17.75 20.39C17.86 20.5 18.15 20.85 18.64 21.43C19.06 21.97 19.46 22.34 19.83 22.56C20.15 22.77 20.53 22.87 20.96 22.87C21.33 22.87 21.91 22.61 22.71 22.08C23.46 21.54 24.26 20.56 25.12 19.12C25.97 17.62 26.39 15.89 26.39 13.91Z" fill="#24AB70" fill-opacity="1.000000" fill-rule="nonzero"/>
</svg>
